<svg width="30" height="30" viewBox="0 0 30 30" fill="none" xmlns="http://www.w3.org/2000/svg">
<path d="M19.0625 23.4375C19.3125 23.4375 19.5312 23.3438 19.7188 23.1562C19.9062 22.9688 20 22.75 20 22.5C20 22.25 19.9062 22.0312 19.7188 21.8438C19.5312 21.6562 19.3125 21.5625 19.0625 21.5625C18.8125 21.5625 18.5938 21.6562 18.4062 21.8438C18.2188 22.0312 18.125 22.25 18.125 22.5C18.125 22.75 18.2188 22.9688 18.4062 23.1562C18.5938 23.3438 18.8125 23.4375 19.0625 23.4375ZM22.5 23.4375C22.75 23.4375 22.9688 23.3438 23.1562 23.1562C23.3438 22.9688 23.4375 22.75 23.4375 22.5C23.4375 22.25 23.3438 22.0312 23.1562 21.8438C22.9688 21.6562 22.75 21.5625 22.5 21.5625C22.25 21.5625 22.0312 21.6562 21.8438 21.8438C21.6562 22.0312 21.5625 22.25 21.5625 22.5C21.5625 22.75 21.6562 22.9688 21.8438 23.1562C22.0312 23.3438 22.25 23.4375 22.5 23.4375ZM25.9375 23.4375C26.1875 23.4375 26.4062 23.3438 26.5938 23.1562C26.7812 22.9688 26.875 22.75 26.875 22.5C26.875 22.25 26.7812 22.0312 26.5938 21.8438C26.4062 21.6562 26.1875 21.5625 25.9375 21.5625C25.6875 21.5625 25.4688 21.6562 25.2812 21.8438C25.0938 22.0312 25 22.25 25 22.5C25 22.75 25.0938 22.9688 25.2812 23.1562C25.4688 23.3438 25.6875 23.4375 25.9375 23.4375ZM6.25 26.25C5.5625 26.25 4.97417 26.0054 4.485 25.5163C3.99583 25.0271 3.75083 24.4383 3.75 23.75V6.25C3.75 5.5625 3.995 4.97417 4.485 4.485C4.975 3.99583 5.56333 3.75083 6.25 3.75H23.75C24.4375 3.75 25.0263 3.995 25.5163 4.485C26.0063 4.975 26.2508 5.56333 26.25 6.25V12.5C26.25 12.8542 26.13 13.1513 25.89 13.3913C25.65 13.6313 25.3533 13.7508 25 13.75C24.6467 13.7492 24.35 13.6292 24.11 13.39C23.87 13.1508 23.75 12.8542 23.75 12.5V6.25H6.25V23.75H12.5C12.8542 23.75 13.1513 23.87 13.3913 24.11C13.6313 24.35 13.7508 24.6467 13.75 25C13.7492 25.3533 13.6292 25.6504 13.39 25.8912C13.1508 26.1321 12.8542 26.2517 12.5 26.25H6.25ZM6.25 22.5V23.75V6.25V13.8438V13.75V22.5ZM8.75 20C8.75 20.3542 8.87 20.6512 9.11 20.8912C9.35 21.1312 9.64667 21.2508 10 21.25H12.5938C12.9479 21.25 13.245 21.13 13.485 20.89C13.725 20.65 13.8446 20.3533 13.8438 20C13.8429 19.6467 13.7233 19.35 13.485 19.11C13.2467 18.87 12.9496 18.75 12.5938 18.75H10C9.64583 18.75 9.34917 18.87 9.11 19.11C8.87083 19.35 8.75083 19.6467 8.75 20ZM8.75 15C8.75 15.3542 8.87 15.6513 9.11 15.8913C9.35 16.1313 9.64667 16.2508 10 16.25H16.25C16.6042 16.25 16.9013 16.13 17.1413 15.89C17.3813 15.65 17.5008 15.3533 17.5 15C17.4992 14.6467 17.3792 14.35 17.14 14.11C16.9008 13.87 16.6042 13.75 16.25 13.75H10C9.64583 13.75 9.34917 13.87 9.11 14.11C8.87083 14.35 8.75083 14.6467 8.75 15ZM8.75 10C8.75 10.3542 8.87 10.6513 9.11 10.8913C9.35 11.1313 9.64667 11.2508 10 11.25H20C20.3542 11.25 20.6512 11.13 20.8912 10.89C21.1312 10.65 21.2508 10.3533 21.25 10C21.2492 9.64667 21.1292 9.35 20.89 9.11C20.6508 8.87 20.3542 8.75 20 8.75H10C9.64583 8.75 9.34917 8.87 9.11 9.11C8.87083 9.35 8.75083 9.64667 8.75 10ZM22.5 28.75C20.7708 28.75 19.2971 28.1404 18.0788 26.9213C16.8604 25.7021 16.2508 24.2283 16.25 22.5C16.2492 20.7717 16.8588 19.2979 18.0788 18.0788C19.2987 16.8596 20.7725 16.25 22.5 16.25C24.2275 16.25 25.7017 16.8596 26.9225 18.0788C28.1433 19.2979 28.7525 20.7717 28.75 22.5C28.7475 24.2283 28.1379 25.7025 26.9213 26.9225C25.7046 28.1425 24.2308 28.7517 22.5 28.75Z" fill="white"/>
</svg>
