<svg width="34" height="34" viewBox="0 0 34 34" fill="none" xmlns="http://www.w3.org/2000/svg">
<path fill-rule="evenodd" clip-rule="evenodd" d="M23.4487 31.3551C21.4087 31.28 15.6273 30.481 9.5725 24.4276C3.51908 18.3727 2.7215 12.5927 2.645 10.5513C2.53166 7.44033 4.9145 4.41858 7.66708 3.2385C7.99855 3.09537 8.36153 3.04088 8.72042 3.08037C9.0793 3.11986 9.42175 3.25197 9.71416 3.46375C11.9808 5.11558 13.5448 7.61458 14.8878 9.5795C15.1833 10.0112 15.3097 10.5365 15.2428 11.0554C15.1759 11.5742 14.9205 12.0503 14.5252 12.393L11.7612 14.4457C11.6277 14.5422 11.5337 14.6838 11.4967 14.8443C11.4597 15.0048 11.4822 15.1733 11.5601 15.3184C12.1862 16.456 13.2997 18.1503 14.5747 19.4253C15.8497 20.7003 17.6248 21.8875 18.8417 22.5845C18.9943 22.6702 19.1739 22.6941 19.3436 22.6514C19.5133 22.6087 19.6602 22.5026 19.7541 22.355L21.5532 19.6166C21.884 19.1772 22.372 18.8828 22.9149 18.7952C23.4579 18.7075 24.0137 18.8333 24.4659 19.1462C26.4592 20.5261 28.7853 22.0632 30.4882 24.2434C30.7171 24.5379 30.8628 24.8886 30.9099 25.2587C30.957 25.6287 30.9038 26.0047 30.7559 26.3472C29.5702 29.1139 26.5697 31.4698 23.4487 31.3551Z" fill="#E9744B"/>
</svg>
