<svg width="30" height="30" viewBox="0 0 30 30" fill="none" xmlns="http://www.w3.org/2000/svg">
<path d="M11.3227 5.29408e-07C9.83574 -0.000454226 8.36328 0.292067 6.98941 0.860853C5.61555 1.42964 4.36722 2.26354 3.31573 3.31492C2.26425 4.3663 1.43022 5.61454 0.861294 6.98835C0.292369 8.36215 -0.000302689 9.83459 5.29498e-07 11.3215C-0.000454294 12.8086 0.292105 14.2811 0.860963 15.6551C1.42982 17.029 2.26383 18.2774 3.31533 19.3289C4.36683 20.3804 5.61521 21.2144 6.98915 21.7833C8.36309 22.3521 9.83565 22.6447 11.3227 22.6442C13.965 22.6442 16.3915 21.7085 18.3185 20.1923L19.3281 21.2019C19.1208 21.6047 19.0474 22.0632 19.1185 22.5106C19.1897 22.958 19.4018 23.371 19.7238 23.6896L25.0246 29.0262C25.8473 29.85 27.1938 29.85 28.0177 29.0262L29.0273 28.0165C29.4226 27.6188 29.6445 27.0808 29.6445 26.52C29.6445 25.9592 29.4226 25.4212 29.0273 25.0235L23.6908 19.7227C23.3703 19.4021 22.9548 19.1938 22.5062 19.129C22.0576 19.0641 21.6001 19.1461 21.2019 19.3627L20.1923 18.3531C21.5139 16.6854 22.3387 14.679 22.5722 12.564C22.8057 10.449 22.4385 8.31107 21.5126 6.39523C20.5867 4.47939 19.1397 2.86325 17.3374 1.73213C15.5351 0.601006 13.4505 0.000684977 11.3227 5.29408e-07ZM11.3227 2.09077C13.7708 2.09077 16.1187 3.06329 17.8498 4.7944C19.5809 6.5255 20.5535 8.87339 20.5535 11.3215C20.5535 13.7697 19.5809 16.1176 17.8498 17.8487C16.1187 19.5798 13.7708 20.5523 11.3227 20.5523C8.87454 20.5523 6.52666 19.5798 4.79555 17.8487C3.06445 16.1176 2.09192 13.7697 2.09192 11.3215C2.09192 8.87339 3.06445 6.5255 4.79555 4.7944C6.52666 3.06329 8.87454 2.09077 11.3227 2.09077ZM5.48077 8.40115C4.86557 9.39807 4.54107 10.547 4.54385 11.7185C4.54248 12.5475 4.70477 13.3687 5.02141 14.135C5.33805 14.9012 5.80282 15.5974 6.38907 16.1836C6.97531 16.7699 7.67151 17.2346 8.43773 17.5513C9.20396 17.8679 10.0252 18.0302 10.8542 18.0288C12.1578 18.0274 13.4292 17.6245 14.4958 16.875C14.2081 16.902 13.9193 16.9136 13.6304 16.9096C12.5595 16.9124 11.4986 16.7035 10.5087 16.295C9.51877 15.8864 8.61933 15.2864 7.86204 14.5292C7.10474 13.772 6.50453 12.8726 6.09587 11.8828C5.68722 10.8929 5.47818 9.83205 5.48077 8.76115C5.48077 8.64115 5.475 8.52115 5.48077 8.40115Z" fill="white"/>
</svg>
