<svg width="25" height="25" viewBox="0 0 25 25" fill="none" xmlns="http://www.w3.org/2000/svg">
<path fill-rule="evenodd" clip-rule="evenodd" d="M21.1008 0.174828C21.6183 -0.0137259 22.1788 -0.0506546 22.7165 0.0683817C23.2542 0.187418 23.7468 0.457473 24.1363 0.846806C24.5259 1.23614 24.7961 1.72857 24.9154 2.26623C25.0347 2.80389 24.9981 3.36443 24.8098 3.88197L18.4276 23.0105C18.2724 23.4806 17.9991 23.903 17.6339 24.2372C17.2687 24.5714 16.8239 24.8063 16.3419 24.9195C15.8611 25.0364 15.3582 25.0264 14.8824 24.8906C14.4066 24.7547 13.9742 24.4976 13.6276 24.1445L10.2026 20.7355L6.6062 22.5963C6.46834 22.6677 6.31422 22.702 6.15905 22.6958C6.00388 22.6895 5.85304 22.6428 5.72141 22.5604C5.58978 22.478 5.48192 22.3627 5.40848 22.2259C5.33503 22.089 5.29855 21.9354 5.30263 21.7802L5.45084 16.0945L18.0312 6.95697C18.1499 6.87079 18.2504 6.76208 18.327 6.63705C18.4037 6.51203 18.4549 6.37313 18.4779 6.22828C18.5009 6.08344 18.4951 5.93549 18.4609 5.79289C18.4267 5.65028 18.3647 5.51581 18.2785 5.39715C18.1923 5.27849 18.0836 5.17797 17.9586 5.10132C17.8336 5.02467 17.6947 4.9734 17.5498 4.95044C17.405 4.92747 17.257 4.93326 17.1144 4.96747C16.9718 5.00168 16.8374 5.06365 16.7187 5.14983L3.92584 14.4427L0.836558 11.3534C0.503617 11.0204 0.258155 10.6102 0.12201 10.1594C-0.0141353 9.70859 -0.0367421 9.23112 0.0562007 8.76947C0.149493 8.26496 0.375282 7.79434 0.710416 7.40586C1.04555 7.01739 1.47797 6.72502 1.96334 6.55876H1.97049L21.1008 0.174828Z" fill="#E9744B"/>
</svg>
