<svg width="30" height="30" viewBox="0 0 30 30" fill="none" xmlns="http://www.w3.org/2000/svg">
<path d="M15.0001 8.75C16.4293 8.75 17.7938 8.79333 19.0938 8.88C20.3655 8.96417 21.5313 9.13917 22.5913 9.405C23.608 9.65833 24.4909 10.0371 25.2401 10.5412C25.9524 11.0217 26.5251 11.6819 26.9001 12.455C27.3076 13.2762 27.5001 14.305 27.5001 15.5375C27.5018 16.7958 27.2626 17.9238 26.7826 18.9213C26.3143 19.8963 25.6738 20.6663 24.8613 21.2313C24.0693 21.7809 23.1253 22.0694 22.1613 22.0563C21.5247 22.0579 20.9488 21.9704 20.4338 21.7937C19.9231 21.6187 19.4328 21.3891 18.9713 21.1087C18.5265 20.8336 18.0908 20.5439 17.6651 20.24C17.2657 19.9503 16.8477 19.6873 16.4138 19.4525C15.9812 19.2125 15.496 19.0833 15.0013 19.0762C14.5351 19.0762 14.0638 19.1975 13.5863 19.4512C13.1905 19.6637 12.7738 19.9262 12.3363 20.2387C11.9347 20.5262 11.4984 20.8158 11.0276 21.1075C10.5679 21.3894 10.0782 21.6192 9.56759 21.7925C9.05093 21.9692 8.47676 22.0567 7.84509 22.055C6.87912 22.0698 5.93275 21.7817 5.13884 21.2313C4.32551 20.6646 3.68509 19.8946 3.21759 18.9213C2.73759 17.9246 2.49843 16.7958 2.50009 15.535C2.49509 14.31 2.68759 13.2825 3.09634 12.46C3.47205 11.6866 4.04561 11.0264 4.75884 10.5463C5.50884 10.0429 6.39218 9.665 7.40884 9.4125C8.55759 9.13315 9.72884 8.95621 10.9088 8.88375C12.2088 8.79458 13.5726 8.75 15.0001 8.75Z" stroke="white" stroke-width="2" stroke-linecap="round" stroke-linejoin="round"/>
</svg>
