<svg width="20" height="23" viewBox="0 0 20 23" fill="none" xmlns="http://www.w3.org/2000/svg">
<g clip-path="url(#clip0_185_28)">
<path d="M12.6432 15.9665V18.6747C12.6432 19.248 12.474 19.5346 12.1354 19.5346C11.9358 19.5346 11.7405 19.4405 11.5495 19.2522V15.389C11.7405 15.2007 11.9358 15.1066 12.1354 15.1066C12.474 15.1066 12.6432 15.3932 12.6432 15.9665ZM17.0443 15.9794V16.5698H15.8724V15.9794C15.8724 15.3975 16.0677 15.1066 16.4583 15.1066C16.849 15.1066 17.0443 15.3975 17.0443 15.9794ZM4.46615 13.1814H5.85938V11.9749H1.79688V13.1814H3.16406V20.4844H4.46615V13.1814ZM8.21615 20.4844H9.375V14.144H8.21615V18.9955C7.95573 19.3549 7.70833 19.5346 7.47396 19.5346C7.31771 19.5346 7.22656 19.4448 7.20052 19.2651C7.19184 19.2394 7.1875 19.0897 7.1875 18.8158V14.144H6.02865V19.1624C6.02865 19.5817 6.06337 19.894 6.13281 20.0993C6.23698 20.4159 6.48872 20.5742 6.88802 20.5742C7.30469 20.5742 7.7474 20.3132 8.21615 19.7913V20.4844ZM13.8021 18.5848V16.0564C13.8021 15.4317 13.763 15.0082 13.6849 14.7857C13.5373 14.3065 13.2292 14.067 12.7604 14.067C12.3264 14.067 11.9227 14.298 11.5495 14.76V11.9749H10.3906V20.4844H11.5495V19.8683C11.9401 20.3389 12.3438 20.5742 12.7604 20.5742C13.2292 20.5742 13.5373 20.3389 13.6849 19.8683C13.763 19.6373 13.8021 19.2094 13.8021 18.5848ZM18.2031 18.4565V18.2896H17.0182C17.0182 18.726 17.0095 18.987 16.9922 19.0725C16.9314 19.3806 16.7578 19.5346 16.4714 19.5346C16.072 19.5346 15.8724 19.2394 15.8724 18.649V17.5324H18.2031V16.2104C18.2031 15.5344 18.0859 15.0381 17.8516 14.7215C17.513 14.2852 17.053 14.067 16.4714 14.067C15.8811 14.067 15.4167 14.2852 15.0781 14.7215C14.8351 15.0381 14.7135 15.5344 14.7135 16.2104V18.4308C14.7135 19.1068 14.8394 19.6031 15.0911 19.9196C15.4297 20.356 15.8984 20.5742 16.4974 20.5742C17.1224 20.5742 17.5911 20.3475 17.9036 19.894C18.0599 19.6629 18.151 19.4319 18.1771 19.2009C18.1944 19.1239 18.2031 18.8757 18.2031 18.4565ZM10.2865 6.73828V4.04297C10.2865 3.45257 10.0998 3.15737 9.72656 3.15737C9.3533 3.15737 9.16667 3.45257 9.16667 4.04297V6.73828C9.16667 7.33724 9.3533 7.63672 9.72656 7.63672C10.0998 7.63672 10.2865 7.33724 10.2865 6.73828ZM19.6484 16.3772C19.6484 18.3795 19.5356 19.8769 19.3099 20.8694C19.1884 21.3743 18.9366 21.7978 18.5547 22.1401C18.1727 22.4823 17.73 22.6791 17.2266 22.7305C15.6293 22.9102 13.2205 23 10 23C6.77951 23 4.37066 22.9102 2.77344 22.7305C2.26997 22.6791 1.82509 22.4823 1.4388 22.1401C1.05252 21.7978 0.802951 21.3743 0.690104 20.8694C0.46441 19.9111 0.351562 18.4137 0.351562 16.3772C0.351562 14.375 0.46441 12.8776 0.690104 11.885C0.811632 11.3802 1.06337 10.9567 1.44531 10.6144C1.82726 10.2721 2.27431 10.0711 2.78646 10.0112C4.375 9.84003 6.77951 9.75446 10 9.75446C13.2205 9.75446 15.6293 9.84003 17.2266 10.0112C17.73 10.0711 18.1749 10.2721 18.5612 10.6144C18.9475 10.9567 19.197 11.3802 19.3099 11.885C19.5356 12.8434 19.6484 14.3408 19.6484 16.3772ZM6.65365 0H7.98177L6.40625 5.12109V8.59933H5.10417V5.12109C4.98264 4.48791 4.71788 3.58092 4.3099 2.40011C3.98872 1.51879 3.7066 0.71875 3.46354 0H4.84375L5.76823 3.37556L6.65365 0ZM11.4714 4.274V6.52009C11.4714 7.21317 11.3498 7.71801 11.1068 8.0346C10.7769 8.47098 10.3168 8.68917 9.72656 8.68917C9.14497 8.68917 8.68924 8.47098 8.35938 8.0346C8.11632 7.70945 7.99479 7.20461 7.99479 6.52009V4.274C7.99479 3.58947 8.11632 3.08891 8.35938 2.77232C8.68924 2.33594 9.14497 2.11775 9.72656 2.11775C10.3168 2.11775 10.7769 2.33594 11.1068 2.77232C11.3498 3.08891 11.4714 3.58947 11.4714 4.274ZM15.8333 2.19475V8.59933H14.6484V7.89342C14.1884 8.42392 13.7413 8.68917 13.3073 8.68917C12.908 8.68917 12.6519 8.53088 12.5391 8.21429C12.4696 8.00893 12.4349 7.68806 12.4349 7.25167V2.19475H13.6198V6.90513C13.6198 7.1875 13.6241 7.33724 13.6328 7.35435C13.6589 7.5426 13.75 7.63672 13.9062 7.63672C14.1406 7.63672 14.388 7.45275 14.6484 7.08482V2.19475H15.8333Z" fill="#F55B25"/>
</g>
<defs>
<clipPath id="clip0_185_28">
<rect width="20" height="23" fill="white"/>
</clipPath>
</defs>
</svg>
